<svg width="12" height="11" viewBox="0 0 12 11" fill="none" xmlns="http://www.w3.org/2000/svg">
<path d="M5.10211 0.881245L5.69669 0.363234C5.94844 0.143896 6.35554 0.143896 6.60462 0.363234L11.8112 4.897C12.0629 5.11634 12.0629 5.47101 11.8112 5.68801L6.60462 10.2241C6.35286 10.4434 5.94577 10.4434 5.69669 10.2241L5.10211 9.7061C4.84767 9.48443 4.85303 9.12276 5.11282 8.90575L8.34014 6.22703H0.642785C0.286575 6.22703 0 5.97735 0 5.66701V4.92033C0 4.60999 0.286575 4.36032 0.642785 4.36032H8.34014L5.11282 1.6816C4.85035 1.46459 4.845 1.10292 5.10211 0.881245Z" fill="#D4B754"/>
</svg>
